<?xml version="1.0" encoding="iso-8859-1"?>
<!DOCTYPE svg PUBLIC "-//W3C//DTD SVG 1.1//EN" "http://www.w3.org/Graphics/SVG/1.1/DTD/svg11.dtd">
<svg version="1.1" id="Capa_1" xmlns="http://www.w3.org/2000/svg" xmlns:xlink="http://www.w3.org/1999/xlink" x="0px" y="0px"
	 viewBox="0 0 423 423" style="enable-background:new 0 0 423 423;" xml:space="preserve">
<g>
	<path style="fill: white;" d="M260.474,393.222c-1.761-1.753-4.61-1.747-6.363,0.014C244.904,402.48,228.975,408,211.5,408s-33.404-5.52-42.611-14.765
		c-1.754-1.761-4.603-1.767-6.363-0.014l-4.252,4.233c-0.846,0.842-1.323,1.986-1.325,3.179c-0.002,1.194,0.469,2.339,1.312,3.185
		C170.22,415.83,190.123,423,211.5,423s41.28-7.17,53.24-19.181c0.842-0.846,1.314-1.991,1.312-3.185
		c-0.003-1.193-0.479-2.337-1.325-3.179L260.474,393.222z"/>
	<path style="fill: white;" d="M60.017,208.486c0.003,0,0.007,0,0.01,0l6-0.013c1.194-0.002,2.337-0.479,3.179-1.325c0.842-0.846,1.314-1.991,1.312-3.185
		c-0.028-13.047,7.333-28.213,19.689-40.571c12.331-12.33,27.471-19.69,40.581-19.69c2.482,0,4.495-2.009,4.5-4.49l0.013-6
		c0.002-1.195-0.516-2.342-1.36-3.189c-0.844-0.846-2.035-1.321-3.23-1.321c-16.921,0-36.028,9.003-51.109,24.083
		c-15.116,15.117-24.119,34.261-24.083,51.21C55.523,206.478,57.536,208.486,60.017,208.486z"/>
	<path style="fill: white;" d="M292.293,143.703c13.03,0,28.17,7.361,40.5,19.69c12.357,12.357,19.718,27.524,19.69,40.571
		c-0.002,1.194,0.469,2.339,1.311,3.185c0.842,0.846,1.985,1.322,3.179,1.325l6,0.013c0.003,0,0.006,0,0.01,0
		c2.48,0,4.494-2.008,4.5-4.49c0.036-16.949-8.967-36.093-24.084-51.21c-15.081-15.08-34.187-24.083-51.199-24.083
		c-1.195,0-2.341,0.476-3.186,1.321c-0.844,0.846-1.317,1.993-1.314,3.189l0.013,6C287.718,141.694,289.811,143.703,292.293,143.703
		z"/>
	<path style="fill: white;" d="M170.882,180h81.237c15.706,0,28.485-12.778,28.485-28.487v-31.781c0-0.01,0-0.02,0-0.029V88.008v-0.086V56.307v-0.08
		v-27.74C280.604,12.778,267.825,0,252.119,0h-81.237c-15.706,0-28.486,12.778-28.486,28.487v27.74v0.08v31.615v0.086v31.694
		c0,0.01,0,0.02,0,0.029v31.781C142.396,167.222,155.175,180,170.882,180z M180.769,19.929c8.282-5.394,19.197-8.365,30.732-8.365
		c11.535,0,22.45,2.971,30.732,8.365c8.969,5.837,13.906,13.825,13.906,22.491c0,8.667-4.937,16.655-13.906,22.493
		c-8.282,5.395-19.197,8.365-30.732,8.365c-11.536,0-22.45-2.971-30.732-8.365c-8.968-5.838-13.906-13.826-13.906-22.493
		C166.863,33.754,171.8,25.767,180.769,19.929z M152.682,78.201c4.939,4.113,11.285,6.592,18.2,6.592h81.237
		c6.916,0,13.262-2.479,18.202-6.592v9.722c0,10.036-8.165,18.202-18.202,18.202h-81.237c-10.036,0-18.2-8.166-18.2-18.202V78.201z
		 M152.682,109.903c4.939,4.113,11.285,6.592,18.2,6.592h81.237c6.916,0,13.262-2.479,18.202-6.592v9.799
		c0,10.037-8.165,18.203-18.202,18.203h-81.237c-10.036,0-18.2-8.166-18.2-18.203V109.903z M152.682,141.632
		c4.939,4.112,11.287,6.587,18.2,6.587h81.237c6.915,0,13.263-2.475,18.202-6.587v9.881c0,10.035-8.165,18.2-18.202,18.2h-81.237
		c-10.036,0-18.2-8.165-18.2-18.2V141.632z"/>
	<path style="fill: white;" d="M211.501,52.708c8.712,0,15.797-4.614,15.797-10.287c0-5.669-7.085-10.283-15.797-10.283
		c-8.712,0-15.799,4.614-15.799,10.283C195.702,48.093,202.789,52.708,211.501,52.708z"/>
	<path style="fill: white;" d="M128.26,215.311H47.023c-15.706,0-28.485,12.778-28.485,28.487v27.74v0.08v31.615v0.086v31.694c0,0.01,0,0.02,0,0.029
		v31.781c0,15.709,12.779,28.487,28.485,28.487h81.237c15.706,0,28.485-12.778,28.485-28.487v-31.781c0-0.01,0-0.02,0-0.029v-31.694
		v-0.086v-31.615v-0.08v-27.74C156.745,228.089,143.966,215.311,128.26,215.311z M56.909,235.24
		c8.282-5.395,19.197-8.365,30.732-8.365s22.45,2.971,30.732,8.365c8.969,5.837,13.905,13.825,13.905,22.491
		c0,8.667-4.936,16.655-13.905,22.493c-8.282,5.395-19.197,8.365-30.732,8.365s-22.45-2.971-30.732-8.365
		c-8.968-5.838-13.905-13.826-13.905-22.493C43.004,249.065,47.941,241.078,56.909,235.24z M146.461,366.824
		c0,10.035-8.164,18.2-18.201,18.2H47.023c-10.035,0-18.2-8.164-18.2-18.2v-9.881c4.939,4.112,11.287,6.587,18.2,6.587h81.237
		c6.914,0,13.263-2.475,18.201-6.587V366.824z M146.461,335.014c0,10.037-8.164,18.203-18.201,18.203H47.023
		c-10.035,0-18.2-8.166-18.2-18.203v-9.799c4.939,4.113,11.285,6.592,18.2,6.592h81.237c6.916,0,13.262-2.479,18.201-6.592V335.014z
		 M146.461,303.233c0,10.036-8.164,18.202-18.201,18.202H47.023c-10.035,0-18.2-8.166-18.2-18.202v-9.722
		c4.939,4.113,11.285,6.592,18.2,6.592h81.237c6.916,0,13.262-2.478,18.201-6.592V303.233z"/>
	<path style="fill: white;" d="M87.642,268.019c8.712,0,15.798-4.614,15.798-10.287c0-5.669-7.086-10.283-15.798-10.283s-15.799,4.614-15.799,10.283
		C71.843,263.404,78.93,268.019,87.642,268.019z"/>
	<path style="fill: white;" d="M375.978,215.311h-81.236c-15.707,0-28.486,12.778-28.486,28.487v27.74v0.08v31.615v0.086v31.694c0,0.01,0,0.02,0,0.029
		v31.781c0,15.709,12.779,28.487,28.486,28.487h81.236c15.706,0,28.485-12.778,28.485-28.487v-31.781c0-0.01,0-0.02,0-0.029v-31.694
		v-0.086v-31.615v-0.08v-27.74C404.463,228.089,391.684,215.311,375.978,215.311z M304.628,235.24
		c8.282-5.395,19.196-8.365,30.732-8.365c11.534,0,22.449,2.971,30.731,8.365c8.969,5.837,13.906,13.825,13.906,22.491
		c0,8.667-4.938,16.655-13.906,22.493c-8.282,5.395-19.197,8.365-30.731,8.365c-11.536,0-22.45-2.971-30.732-8.365
		c-8.969-5.838-13.906-13.826-13.906-22.493C290.722,249.065,295.659,241.078,304.628,235.24z M394.18,366.824
		c0,10.035-8.165,18.2-18.202,18.2h-81.236c-10.036,0-18.2-8.164-18.2-18.2v-9.881c4.939,4.112,11.286,6.587,18.2,6.587h81.236
		c6.915,0,13.263-2.475,18.202-6.587V366.824z M394.18,335.014c0,10.037-8.165,18.203-18.202,18.203h-81.236
		c-10.036,0-18.2-8.166-18.2-18.203v-9.799c4.939,4.113,11.285,6.592,18.2,6.592h81.236c6.916,0,13.263-2.479,18.202-6.592V335.014z
		 M394.18,303.233c0,10.036-8.165,18.202-18.202,18.202h-81.236c-10.036,0-18.2-8.166-18.2-18.202v-9.722
		c4.939,4.113,11.285,6.592,18.2,6.592h81.236c6.916,0,13.263-2.478,18.202-6.592V303.233z"/>
	<path style="fill: white;" d="M335.36,268.019c8.712,0,15.797-4.614,15.797-10.287c0-5.669-7.085-10.283-15.797-10.283
		c-8.713,0-15.799,4.614-15.799,10.283C319.561,263.404,326.647,268.019,335.36,268.019z"/>
</g>
</svg>
